<svg width="174" height="42" xmlns="http://www.w3.org/2000/svg">
  <g id="svg_33">
    <g transform="matrix(1.0261384767594497,0,0,1.0261384767594497,-742.169631877074,-544.9588295749344) " id="svg_15">
      <g id="svg_16">
        <path id="svg_17" d="m778.972566,555.808263c-0.308,0.68 -0.768,1.186 -1.382,1.521s-1.33,0.5 -2.146,0.5c-0.865,0 -1.654,-0.135 -2.368,-0.408c-0.715,-0.27 -1.329,-0.66 -1.842,-1.17c-0.513,-0.509 -0.91,-1.143 -1.193,-1.903c-0.28,-0.761 -0.424,-1.609 -0.423,-2.547c0,-0.918 0.134,-1.766 0.39,-2.535c0.26,-0.774 0.626,-1.438 1.105,-1.994c0.478,-0.558 1.072,-0.991 1.782,-1.304c0.712,-0.309 1.509,-0.463 2.388,-0.463c0.51,0 0.966,0.05 1.37,0.152c0.4,0.1 0.754,0.248 1.048,0.441c0.294,0.197 0.545,0.413 0.758,0.648c0.208,0.24 0.403,0.522 0.58,0.844l0.002,-0.45c0.023,-0.483 0.178,-0.853 0.459,-1.107c0.283,-0.251 0.651,-0.382 1.104,-0.382c0.517,0.002 0.91,0.176 1.18,0.522c0.272,0.349 0.406,0.853 0.405,1.517l-0.005,9.319c-0.001,1.963 -0.556,3.479 -1.665,4.552c-1.104,1.067 -2.665,1.604 -4.68,1.604c-0.822,-0.002 -1.628,-0.081 -2.417,-0.24c-0.785,-0.158 -1.394,-0.356 -1.823,-0.59c-0.467,-0.25 -0.703,-0.6 -0.703,-1.055c0.002,-0.299 0.108,-0.562 0.323,-0.787c0.213,-0.227 0.479,-0.338 0.793,-0.338c0.025,0 0.05,0.002 0.072,0.006c0.026,0.005 0.048,0.006 0.067,0.006c0.021,0 0.044,0.001 0.066,0.005c0.024,0.003 0.05,0.009 0.073,0.013c0.024,0.002 0.049,0.013 0.073,0.019c0.024,0.008 0.047,0.016 0.073,0.024c0.039,0.018 0.205,0.068 0.494,0.157c0.293,0.089 0.496,0.149 0.613,0.183c0.119,0.033 0.301,0.079 0.554,0.139c0.248,0.062 0.489,0.104 0.712,0.129c0.228,0.025 0.458,0.036 0.692,0.036c0.275,0 0.531,-0.014 0.771,-0.043c0.236,-0.026 0.466,-0.071 0.685,-0.131c0.219,-0.061 0.416,-0.136 0.593,-0.229c0.178,-0.094 0.344,-0.205 0.497,-0.334c0.154,-0.129 0.287,-0.282 0.401,-0.454c0.111,-0.174 0.206,-0.368 0.284,-0.581c0.076,-0.215 0.136,-0.454 0.177,-0.721c0.039,-0.267 0.059,-0.553 0.061,-0.861l0.002,-1.71zm-0.785,-1.139c0.526,-0.633 0.786,-1.608 0.787,-2.932c0.001,-1.301 -0.221,-2.307 -0.663,-3.02c-0.445,-0.714 -1.188,-1.065 -2.23,-1.066c-0.533,0 -0.997,0.105 -1.389,0.318c-0.393,0.215 -0.696,0.514 -0.915,0.897c-0.217,0.382 -0.38,0.81 -0.485,1.276c-0.105,0.469 -0.158,0.99 -0.158,1.563c-0.001,1.285 0.268,2.259 0.804,2.922c0.537,0.663 1.251,0.999 2.139,1.007c0.881,-0.011 1.581,-0.335 2.11,-0.965z" fill="#353245"/>
        <path id="svg_18" d="m783.837566,553.080263c0.122,-0.4 0.325,-0.742 0.607,-1.03c0.284,-0.287 0.616,-0.521 1.001,-0.698c0.382,-0.175 0.881,-0.315 1.49,-0.422c0.608,-0.104 1.255,-0.175 1.935,-0.209c0.678,-0.038 1.503,-0.057 2.472,-0.055l0,-0.872c0.001,-1.39 -0.687,-2.085 -2.062,-2.087c-0.442,0 -0.915,0.057 -1.415,0.17c-0.503,0.112 -0.875,0.211 -1.117,0.295c-0.241,0.086 -0.568,0.211 -0.98,0.383c-0.041,0.016 -0.084,0.031 -0.128,0.041c-0.043,0.011 -0.087,0.021 -0.126,0.024c-0.042,0.005 -0.081,0.005 -0.121,0.005c-0.301,0 -0.555,-0.128 -0.765,-0.387c-0.208,-0.258 -0.314,-0.547 -0.313,-0.86c0,-0.2 0.049,-0.388 0.146,-0.552c0.098,-0.164 0.247,-0.298 0.45,-0.394c1.34,-0.638 2.854,-0.956 4.541,-0.955c0.77,0 1.454,0.087 2.056,0.263c0.603,0.174 1.137,0.444 1.6,0.819c0.464,0.37 0.823,0.874 1.072,1.51c0.249,0.634 0.376,1.388 0.376,2.26l-0.004,5.831c0,0.53 -0.156,0.945 -0.462,1.24c-0.309,0.295 -0.668,0.441 -1.078,0.441c-0.27,0 -0.522,-0.064 -0.765,-0.195c-0.533,-0.291 -0.8,-0.791 -0.8,-1.502l0.001,-0.34c-0.275,0.704 -0.734,1.241 -1.376,1.611c-0.645,0.372 -1.401,0.558 -2.273,0.558c-1.205,-0.002 -2.196,-0.312 -2.975,-0.938c-0.78,-0.62 -1.169,-1.466 -1.169,-2.532c0.002,-0.548 0.062,-1.025 0.182,-1.423zm5.593,2.656c0.352,-0.157 0.668,-0.376 0.95,-0.654c0.283,-0.278 0.512,-0.625 0.687,-1.039c0.174,-0.419 0.261,-0.859 0.261,-1.328l0.001,-0.4c-0.525,0 -0.963,0.002 -1.315,0.01c-0.352,0.01 -0.706,0.029 -1.064,0.062c-0.361,0.031 -0.652,0.076 -0.876,0.132c-0.221,0.059 -0.433,0.132 -0.637,0.226c-0.201,0.091 -0.356,0.207 -0.464,0.345c-0.112,0.137 -0.196,0.301 -0.255,0.488c-0.061,0.192 -0.092,0.411 -0.093,0.662c0,0.542 0.154,0.965 0.465,1.273c0.312,0.306 0.734,0.461 1.268,0.461c0.362,-0.002 0.719,-0.081 1.072,-0.238z" fill="#353245"/>
        <path id="svg_19" d="m797.182566,557.322263c-0.282,-0.338 -0.422,-0.828 -0.421,-1.466l0.005,-8.288c0,-0.633 0.146,-1.107 0.438,-1.426c0.289,-0.317 0.701,-0.478 1.234,-0.478c0.509,0 0.922,0.142 1.235,0.424c0.315,0.283 0.474,0.685 0.474,1.202l-0.001,0.484c0.681,-1.528 2.006,-2.291 3.976,-2.289c2.062,0 3.357,0.883 3.892,2.646c0.791,-1.762 2.254,-2.641 4.388,-2.639c1.27,0 2.295,0.388 3.077,1.165c0.782,0.775 1.177,1.912 1.176,3.405l-0.003,5.806c-0.001,0.64 -0.149,1.129 -0.44,1.467c-0.292,0.34 -0.712,0.508 -1.26,0.508c-0.525,0 -0.934,-0.17 -1.229,-0.51c-0.296,-0.338 -0.442,-0.827 -0.441,-1.466l0.003,-5.709c0,-0.793 -0.19,-1.4 -0.575,-1.825c-0.384,-0.424 -0.904,-0.637 -1.557,-0.637c-0.8,0 -1.46,0.286 -1.98,0.865c-0.522,0.576 -0.785,1.375 -0.785,2.395l-0.002,4.908c-0.002,0.638 -0.149,1.127 -0.443,1.465c-0.295,0.34 -0.719,0.508 -1.27,0.508c-0.523,0 -0.931,-0.17 -1.222,-0.51c-0.291,-0.338 -0.437,-0.827 -0.435,-1.466l0.004,-5.575c0,-0.849 -0.188,-1.493 -0.563,-1.934c-0.377,-0.441 -0.898,-0.66 -1.568,-0.66c-0.825,-0.002 -1.487,0.263 -1.989,0.793c-0.501,0.526 -0.752,1.252 -0.752,2.173l-0.003,5.201c-0.001,0.637 -0.153,1.126 -0.455,1.464c-0.306,0.342 -0.734,0.508 -1.295,0.508c-0.527,0.001 -0.928,-0.167 -1.213,-0.509z" fill="#353245"/>
        <path id="svg_20" d="m820.015566,556.321263c-1.175,-1.109 -1.761,-2.66 -1.761,-4.655c0.002,-1.134 0.244,-2.162 0.737,-3.089c0.487,-0.932 1.206,-1.677 2.152,-2.237c0.945,-0.561 2.03,-0.841 3.259,-0.841c0.963,0.002 1.811,0.159 2.545,0.476c0.733,0.312 1.321,0.748 1.758,1.298c0.436,0.549 0.765,1.167 0.985,1.854c0.222,0.688 0.337,1.436 0.344,2.244c0,0.32 -0.087,0.577 -0.262,0.762c-0.173,0.187 -0.426,0.281 -0.758,0.281l-7.391,-0.005c0.103,2.172 1.223,3.259 3.354,3.261c1.053,0 2.101,-0.397 3.151,-1.198c0.146,-0.122 0.309,-0.181 0.486,-0.181c0.136,0 0.271,0.037 0.403,0.108c0.134,0.074 0.248,0.166 0.345,0.279c0.099,0.113 0.177,0.246 0.237,0.395c0.061,0.149 0.091,0.297 0.091,0.443c0,0.038 -0.002,0.074 -0.005,0.107c-0.004,0.031 -0.008,0.065 -0.013,0.104c-0.004,0.034 -0.013,0.069 -0.023,0.103c-0.012,0.032 -0.027,0.063 -0.045,0.096c-0.016,0.033 -0.03,0.065 -0.047,0.098c-0.019,0.031 -0.037,0.063 -0.061,0.096c-0.024,0.033 -0.052,0.065 -0.08,0.097c-0.027,0.032 -0.059,0.063 -0.089,0.087c-1.271,1.129 -2.835,1.694 -4.692,1.692c-1.906,-0.01 -3.446,-0.569 -4.62,-1.675zm7.173,-5.645c-0.145,-2.068 -1.049,-3.104 -2.712,-3.104c-0.858,0 -1.529,0.297 -2.014,0.896c-0.486,0.597 -0.757,1.334 -0.812,2.205l5.538,0.003z" fill="#353245"/>
        <path id="svg_21" d="m832.986566,557.337263c-0.303,-0.34 -0.454,-0.831 -0.453,-1.471l0.005,-8.07l-1.042,-0.002c-0.809,-0.016 -1.212,-0.363 -1.212,-1.042c0,-0.195 0.035,-0.364 0.104,-0.517c0.068,-0.149 0.188,-0.271 0.356,-0.374c0.171,-0.103 0.389,-0.153 0.655,-0.153l0.026,0l1.114,0.002l0,-1.029c0.002,-1.583 0.365,-2.735 1.094,-3.454c0.726,-0.718 1.814,-1.075 3.262,-1.075l1.43,0.001c0.322,0.001 0.58,0.13 0.775,0.393c0.194,0.265 0.29,0.564 0.29,0.905c0,0.339 -0.093,0.625 -0.279,0.858c-0.188,0.235 -0.45,0.351 -0.789,0.351l-0.885,0c-0.597,0 -0.998,0.15 -1.206,0.453c-0.205,0.303 -0.311,0.955 -0.311,1.958l0,0.643l1.515,0c0.355,0 0.634,0.093 0.831,0.274c0.198,0.181 0.295,0.438 0.295,0.77c0,0.694 -0.399,1.043 -1.201,1.043l-1.441,-0.002l-0.004,8.07c-0.001,0.64 -0.148,1.131 -0.443,1.471c-0.294,0.346 -0.71,0.518 -1.243,0.518c-0.527,-0.001 -0.94,-0.175 -1.243,-0.521z" fill="#353245"/>
        <path id="svg_22" d="m842.322566,557.503263c-0.845,-0.334 -1.525,-0.793 -2.04,-1.373c-0.519,-0.575 -0.909,-1.235 -1.176,-1.974c-0.266,-0.741 -0.398,-1.533 -0.397,-2.382c0,-0.84 0.133,-1.633 0.396,-2.375c0.264,-0.743 0.651,-1.41 1.169,-1.993c0.519,-0.587 1.2,-1.049 2.043,-1.395c0.847,-0.341 1.806,-0.512 2.881,-0.512c1.051,0.003 1.99,0.165 2.822,0.494c0.831,0.325 1.512,0.776 2.035,1.351c0.524,0.575 0.928,1.238 1.206,1.989c0.277,0.751 0.419,1.567 0.417,2.449c-0.001,0.822 -0.134,1.603 -0.402,2.34c-0.267,0.733 -0.657,1.394 -1.173,1.978c-0.513,0.587 -1.189,1.049 -2.034,1.395c-0.847,0.342 -1.805,0.514 -2.88,0.514c-1.068,-0.002 -2.024,-0.172 -2.867,-0.506zm5.134,-2.773c0.533,-0.707 0.801,-1.689 0.803,-2.948c0,-1.294 -0.264,-2.293 -0.792,-3c-0.528,-0.709 -1.287,-1.062 -2.272,-1.063c-0.986,0 -1.744,0.353 -2.272,1.062c-0.529,0.705 -0.795,1.705 -0.796,2.997c-0.001,1.252 0.267,2.234 0.797,2.945c0.533,0.713 1.289,1.068 2.267,1.068c0.978,0 1.732,-0.352 2.265,-1.061z" fill="#353245"/>
        <path id="svg_23" d="m854.448566,556.802263c-0.829,-0.809 -1.241,-1.956 -1.24,-3.443l0.003,-5.684c0.001,-0.638 0.149,-1.128 0.451,-1.467c0.296,-0.338 0.726,-0.508 1.284,-0.508c0.524,0 0.927,0.17 1.21,0.508c0.282,0.341 0.424,0.831 0.423,1.469l-0.004,5.659c0,0.8 0.201,1.411 0.605,1.832c0.403,0.419 0.922,0.63 1.552,0.63c0.769,0 1.423,-0.298 1.97,-0.893c0.545,-0.601 0.818,-1.369 0.819,-2.316l0.003,-4.908c0.001,-0.638 0.15,-1.128 0.447,-1.467c0.301,-0.34 0.726,-0.51 1.274,-0.508c0.534,0 0.94,0.17 1.224,0.511c0.284,0.338 0.423,0.828 0.422,1.466l-0.005,8.472c0,0.565 -0.149,0.993 -0.447,1.284c-0.301,0.291 -0.72,0.436 -1.261,0.436c-0.526,-0.001 -0.934,-0.145 -1.225,-0.438c-0.289,-0.289 -0.436,-0.715 -0.436,-1.271l0.001,-0.353c-0.712,1.47 -2.042,2.206 -3.989,2.204c-1.227,0 -2.253,-0.406 -3.081,-1.215z" fill="#353245"/>
        <path id="svg_24" d="m867.509566,557.369263c-0.283,-0.34 -0.425,-0.83 -0.423,-1.468l0.006,-8.47c0,-0.568 0.149,-0.995 0.449,-1.285c0.298,-0.292 0.717,-0.438 1.26,-0.438c0.524,0 0.932,0.147 1.217,0.439c0.287,0.29 0.43,0.713 0.43,1.271l0,0.294c0.729,-1.464 2.099,-2.193 4.111,-2.193c1.221,0.002 2.225,0.403 3.022,1.208c0.794,0.804 1.193,1.954 1.192,3.449l-0.003,5.733c-0.002,0.638 -0.152,1.128 -0.451,1.466s-0.728,0.508 -1.285,0.508c-0.525,0 -0.929,-0.171 -1.212,-0.51c-0.284,-0.339 -0.424,-0.828 -0.422,-1.466l0.002,-5.709c0,-0.791 -0.203,-1.399 -0.61,-1.826c-0.407,-0.422 -0.927,-0.635 -1.558,-0.636c-0.762,0 -1.412,0.3 -1.957,0.896c-0.545,0.598 -0.819,1.369 -0.82,2.314l-0.002,4.957c-0.001,0.638 -0.15,1.127 -0.449,1.467c-0.301,0.337 -0.729,0.509 -1.285,0.509c-0.525,0 -0.932,-0.171 -1.212,-0.51z" fill="#353245"/>
        <path id="svg_25" d="m881.729566,556.341263c-0.959,-1.16 -1.438,-2.689 -1.438,-4.589c0.002,-1.929 0.503,-3.442 1.505,-4.532s2.309,-1.635 3.913,-1.633c1.837,0.001 3.117,0.663 3.844,1.99l0.003,-5.261c0.002,-0.636 0.149,-1.128 0.447,-1.467c0.302,-0.339 0.732,-0.507 1.286,-0.507c0.525,0 0.93,0.168 1.212,0.509c0.282,0.339 0.425,0.831 0.424,1.467l-0.009,13.514c-0.001,0.64 -0.153,1.142 -0.461,1.517c-0.309,0.369 -0.725,0.555 -1.25,0.555c-0.519,0 -0.921,-0.145 -1.212,-0.438c-0.289,-0.291 -0.436,-0.694 -0.436,-1.213l0.002,-0.326c-0.754,1.438 -2.091,2.158 -4.017,2.156c-1.579,0.001 -2.852,-0.582 -3.813,-1.742zm7.091,-1.465c0.478,-0.695 0.717,-1.717 0.718,-3.059c0.001,-1.229 -0.255,-2.205 -0.768,-2.932c-0.513,-0.729 -1.267,-1.092 -2.261,-1.094c-0.678,0 -1.243,0.194 -1.695,0.582c-0.453,0.386 -0.773,0.873 -0.959,1.461c-0.187,0.584 -0.279,1.247 -0.279,1.992c0,0.381 0.027,0.754 0.082,1.122c0.058,0.367 0.155,0.731 0.297,1.097c0.141,0.363 0.318,0.684 0.532,0.957c0.215,0.273 0.492,0.497 0.831,0.667c0.34,0.171 0.725,0.255 1.151,0.255c1.091,0.002 1.875,-0.347 2.351,-1.048z" fill="#353245"/>
      </g>
      <g id="svg_26">
        <linearGradient y2="0.5" x2="1.000012" y1="0.5" x1="-0.000027" id="svg_13">
          <stop stop-color="#0EB568" offset="0.000817"/>
          <stop stop-color="#10B669" offset="0.0066"/>
          <stop stop-color="#36CC83" offset="0.1528"/>
          <stop stop-color="#57DF99" offset="0.3044"/>
          <stop stop-color="#6FEDAA" offset="0.4607"/>
          <stop stop-color="#81F7B6" offset="0.6236"/>
          <stop stop-color="#8CFDBD" offset="0.7971"/>
          <stop stop-color="#8FFFBF" offset="1"/>
        </linearGradient>
        <path id="svg_27" d="m763.987566,551.584263c-0.079,11.179 -9.164,20.215 -20.36,20.215c-11.246,0 -20.361,-9.114 -20.361,-20.362c0,-11.243 9.115,-20.36 20.361,-20.36l13.193,0c1.141,0 2.065,0.926 2.065,2.064c0,0.108 -0.127,0.691 -0.426,1.196c-1.272,2.159 -4.668,6.803 -4.668,6.803c-0.375,0.386 -0.897,0.622 -1.478,0.622l-8.688,0c-5.345,0 -9.677,4.331 -9.677,9.675c0,5.345 4.332,9.678 9.677,9.678c3.271,0 6.161,-1.622 7.913,-4.107l0.271,-0.397c0.194,-0.315 0.308,-0.687 0.308,-1.085c0,-0.887 -0.562,-1.646 -1.349,-1.937l-0.633,-0.321c-0.579,-0.369 -0.962,-1.013 -0.962,-1.747c0,-1.142 0.924,-2.063 2.064,-2.063l1.858,-0.014l7.142,0l1.69,0.013c1.14,0 2.063,0.922 2.063,2.063l-0.003,0.064z" fill="url(#svg_13)"/>
        <g id="svg_28">
          <linearGradient y2="0.499982" x2="1.000037" y1="0.499982" x1="0.000022" id="svg_12">
            <stop stop-color="#8FFFBF" offset="0"/>
            <stop stop-color="#86FAB9" offset="0.1395"/>
            <stop stop-color="#6FEDA9" offset="0.3635"/>
            <stop stop-color="#49D78F" offset="0.6439"/>
            <stop stop-color="#14B86C" offset="0.9672"/>
            <stop stop-color="#0EB568" offset="1"/>
          </linearGradient>
          <path id="svg_29" d="m761.927566,549.457263l-1.69,-0.013l-1.473,0c-0.382,10.859 -7.432,17.593 -17.792,17.145c-9.155,-0.396 -16.708,-6.923 -17.695,-15.825c-0.007,0.226 -0.013,0.45 -0.013,0.674c0,11.248 9.115,20.362 20.361,20.362c11.196,0 20.281,-9.036 20.36,-20.215l0.004,-0.064c0.002,-1.143 -0.922,-2.064 -2.062,-2.064z" fill="url(#svg_12)"/>
        </g>
        <linearGradient y2="0.499993" x2="0.99997" y1="0.499993" x1="0.000033" id="svg_11">
          <stop stop-color="#8FFFBF" offset="0"/>
          <stop stop-color="#6EF6AE" offset="0.1892"/>
          <stop stop-color="#4FED9F" offset="0.4051"/>
          <stop stop-color="#39E794" offset="0.616"/>
          <stop stop-color="#2CE38D" offset="0.8177"/>
          <stop stop-color="#27e28b" offset="1"/>
        </linearGradient>
        <path id="svg_30" d="m743.626566,561.115263c-5.345,0 -9.677,-4.333 -9.677,-9.678c0,-5.344 4.332,-9.675 9.677,-9.675l8.688,0c0.58,0 1.103,-0.236 1.478,-0.622c0,0 3.396,-4.644 4.668,-6.803c0.299,-0.505 0.426,-1.088 0.426,-1.196c0,-1.139 -0.925,-2.064 -2.065,-2.064l-13.195,0c-4.615,0 -8.87,1.537 -12.285,4.124c-3.238,2.76 -5.291,6.865 -5.291,11.453c0,8.307 6.734,15.041 15.041,15.041c1.414,0 2.546,-0.222 3.45,-0.628c-0.301,0.028 -0.605,0.048 -0.915,0.048z" fill="url(#svg_11)"/>
        <linearGradient y2="0.500059" x2="0.999983" y1="0.500059" x1="0.000013" id="svg_10">
          <stop stop-color="#0EB568" offset="0"/>
          <stop stop-color="#20BF74" offset="0.0792"/>
          <stop stop-color="#48D68F" offset="0.2762"/>
          <stop stop-color="#67E8A4" offset="0.4705"/>
          <stop stop-color="#7DF5B3" offset="0.6588"/>
          <stop stop-color="#8AFCBC" offset="0.8384"/>
          <stop stop-color="#8FFFBF" offset="1"/>
        </linearGradient>
        <path id="svg_31" d="m747.336566,536.183263c-7.538,0 -13.65,6.111 -13.65,13.65c0,1.178 0.153,2.314 0.432,3.402c-0.108,-0.582 -0.169,-1.184 -0.169,-1.799c0,-5.344 4.332,-9.675 9.677,-9.675l8.688,0c0.58,0 1.103,-0.236 1.478,-0.622c0,0 1.982,-2.714 3.486,-4.957l-9.942,0l0,0.001z" fill="url(#svg_10)"/>
        <linearGradient y2="0.500056" x2="1.000033" y1="0.500056" x1="-0.000032" id="svg_9">
          <stop stop-color="#8FFFBF" offset="0"/>
          <stop stop-color="#7CF4B2" offset="0.0813"/>
          <stop stop-color="#55DE98" offset="0.2773"/>
          <stop stop-color="#36CC83" offset="0.4707"/>
          <stop stop-color="#20BF74" offset="0.6584"/>
          <stop stop-color="#13B86B" offset="0.8378"/>
          <stop stop-color="#0EB568" offset="1"/>
        </linearGradient>
        <path id="svg_32" d="m752.722566,549.435263l-1.472,0.009c-1.141,0 -2.064,0.924 -2.064,2.064c0,0.735 0.384,1.378 0.963,1.746l0.631,0.323c0.787,0.288 1.337,1.053 1.337,1.939c0,0.373 -0.089,0.718 -0.263,1.017c0.912,-1.46 1.443,-3.182 1.459,-5.027l0.003,0.002c0,-1.141 0.924,-2.064 2.063,-2.064l-2.657,-0.009z" fill="url(#svg_9)"/>
      </g>
    </g>
  </g>
</svg>